<svg width="117" height="36" viewBox="0 0 117 36" fill="none" xmlns="http://www.w3.org/2000/svg">
<path d="M11.7031 5.43604H26.657L15.6629 21.9294H0.708984L11.7031 5.43604Z" fill="#0C0D0E"/>
<path d="M12.3589 23.4578L8.10059 29.8461H23.7638L34.7579 13.3528H23.1975L16.4616 23.4578H12.3589Z" fill="#6466F1"/>
<path d="M43.2138 29V26.5391L54.3999 10.495H43.1499V7.18182H59.3005V9.64276L48.1251 25.6868H59.3644V29H43.2138ZM70.2628 29.3196C68.6222 29.3196 67.2053 28.9787 66.0121 28.2969C64.826 27.608 63.9134 26.6349 63.2742 25.3778C62.635 24.1136 62.3154 22.6257 62.3154 20.9141C62.3154 19.2308 62.635 17.7536 63.2742 16.4822C63.9205 15.2038 64.8225 14.2095 65.9802 13.4993C67.1378 12.782 68.4979 12.4233 70.0604 12.4233C71.0689 12.4233 72.0207 12.5866 72.9155 12.9134C73.8175 13.233 74.613 13.7301 75.3019 14.4048C75.9979 15.0795 76.5448 15.9389 76.9425 16.983C77.3403 18.0199 77.5391 19.2557 77.5391 20.6903V21.8729H64.1265V19.2734H73.8424C73.8353 18.5348 73.6755 17.8778 73.363 17.3026C73.0505 16.7202 72.6137 16.2621 72.0526 15.9283C71.4986 15.5945 70.8523 15.4276 70.1137 15.4276C69.3253 15.4276 68.6329 15.6193 68.0363 16.0028C67.4397 16.3793 66.9745 16.8764 66.6407 17.4943C66.314 18.1051 66.1471 18.7763 66.14 19.5078V21.777C66.14 22.7287 66.314 23.5455 66.662 24.2273C67.01 24.902 67.4965 25.4205 68.1215 25.7827C68.7465 26.1378 69.478 26.3153 70.3161 26.3153C70.8772 26.3153 71.385 26.2372 71.8395 26.081C72.2941 25.9176 72.6883 25.6797 73.0221 25.3672C73.3559 25.0547 73.608 24.6676 73.7785 24.206L77.3793 24.6108C77.152 25.5625 76.7188 26.3935 76.0796 27.1037C75.4475 27.8068 74.6378 28.3537 73.6506 28.7443C72.6634 29.1278 71.5341 29.3196 70.2628 29.3196ZM84.6583 19.4119V29H80.8017V12.6364H84.4878V15.4169H84.6796C85.056 14.5007 85.6561 13.7727 86.48 13.233C87.311 12.6932 88.3372 12.4233 89.5588 12.4233C90.6881 12.4233 91.6718 12.6648 92.5098 13.1477C93.355 13.6307 94.0084 14.3303 94.47 15.2464C94.9388 16.1626 95.1696 17.2741 95.1625 18.581V29H91.306V19.1776C91.306 18.0838 91.0219 17.228 90.4537 16.6101C89.8926 15.9922 89.1149 15.6832 88.1206 15.6832C87.4459 15.6832 86.8458 15.8324 86.3202 16.1307C85.8017 16.4219 85.3933 16.8445 85.095 17.3984C84.8039 17.9524 84.6583 18.6236 84.6583 19.4119ZM105.155 29.2876C103.87 29.2876 102.719 28.9574 101.704 28.2969C100.688 27.6364 99.8855 26.6776 99.296 25.4205C98.7066 24.1634 98.4118 22.6364 98.4118 20.8395C98.4118 19.0213 98.7101 17.4872 99.3067 16.2372C99.9104 14.9801 100.724 14.032 101.746 13.3928C102.769 12.7464 103.909 12.4233 105.166 12.4233C106.125 12.4233 106.913 12.5866 107.531 12.9134C108.149 13.233 108.639 13.62 109.001 14.0746C109.364 14.522 109.644 14.9446 109.843 15.3423H110.003V7.18182H113.87V29H110.077V26.4219H109.843C109.644 26.8196 109.356 27.2422 108.98 27.6896C108.604 28.13 108.106 28.5064 107.489 28.8189C106.871 29.1314 106.093 29.2876 105.155 29.2876ZM106.231 26.1236C107.048 26.1236 107.744 25.9034 108.319 25.4631C108.895 25.0156 109.332 24.3942 109.63 23.5987C109.928 22.8033 110.077 21.8764 110.077 20.8182C110.077 19.7599 109.928 18.8402 109.63 18.0589C109.339 17.2777 108.905 16.6705 108.33 16.2372C107.762 15.804 107.062 15.5874 106.231 15.5874C105.372 15.5874 104.655 15.8111 104.079 16.2585C103.504 16.706 103.071 17.3239 102.78 18.1122C102.489 18.9006 102.343 19.8026 102.343 20.8182C102.343 21.8409 102.489 22.7536 102.78 23.5561C103.078 24.3516 103.515 24.9801 104.09 25.4418C104.672 25.8963 105.386 26.1236 106.231 26.1236Z" fill="#080065"/>
</svg>
