<svg width="139" height="46" viewBox="0 0 139 46" fill="none" xmlns="http://www.w3.org/2000/svg">
<path d="M15.5087 6.39746H35.3254L20.7562 28.1923H0.939453L15.5087 6.39746Z" fill="white"/>
<path d="M16.3774 30.2122L10.7344 38.6539H31.4911L46.0603 16.8591H30.7406L21.8143 30.2122H16.3774Z" fill="#0267FF"/>
<path d="M52.178 36V31.554L65.212 15.366V15.024H52.52V10.92H70.646V15.632L57.802 31.554V31.896H71.026V36H52.178ZM83.0328 36.494C81.3861 36.494 79.9421 36.266 78.7008 35.81C77.4595 35.3287 76.4208 34.6447 75.5848 33.758C74.7488 32.8713 74.1155 31.8073 73.6848 30.566C73.2541 29.3247 73.0388 27.944 73.0388 26.424C73.0388 24.8787 73.2415 23.46 73.6468 22.168C74.0775 20.8507 74.6981 19.7107 75.5088 18.748C76.3195 17.76 77.3201 17 78.5108 16.468C79.7268 15.9107 81.1201 15.632 82.6908 15.632C84.1601 15.632 85.4648 15.8853 86.6048 16.392C87.7701 16.8733 88.7328 17.5953 89.4928 18.558C90.2528 19.5207 90.7975 20.6987 91.1268 22.092C91.4815 23.46 91.5955 25.0307 91.4688 26.804L76.1168 26.956V24.144L88.4288 24.03L87.0228 25.588C87.1495 24.22 87.0355 23.0927 86.6808 22.206C86.3515 21.294 85.8448 20.61 85.1608 20.154C84.4768 19.698 83.6535 19.47 82.6908 19.47C81.6521 19.47 80.7528 19.7487 79.9928 20.306C79.2328 20.838 78.6501 21.6107 78.2448 22.624C77.8648 23.6373 77.6748 24.866 77.6748 26.31C77.6748 28.514 78.1435 30.1607 79.0808 31.25C80.0435 32.3393 81.3735 32.884 83.0708 32.884C83.8308 32.884 84.4641 32.7827 84.9708 32.58C85.5028 32.3773 85.9461 32.1113 86.3008 31.782C86.6555 31.4273 86.9215 31.0347 87.0988 30.604C87.3015 30.1733 87.4408 29.73 87.5168 29.274L91.7728 29.996C91.6208 30.9333 91.3421 31.8073 90.9368 32.618C90.5315 33.4033 89.9615 34.0873 89.2268 34.67C88.5175 35.2527 87.6561 35.696 86.6428 36C85.6295 36.3293 84.4261 36.494 83.0328 36.494ZM95.3267 36V24.41V16.164H99.3927L99.2027 23.004H99.8107C100.089 21.332 100.52 19.9513 101.103 18.862C101.685 17.7727 102.445 16.962 103.383 16.43C104.345 15.898 105.473 15.632 106.765 15.632C109.019 15.632 110.717 16.4173 111.857 17.988C112.997 19.5587 113.567 21.9907 113.567 25.284V36H108.779V25.74C108.779 23.688 108.475 22.1807 107.867 21.218C107.259 20.23 106.334 19.736 105.093 19.736C104.029 19.736 103.129 20.078 102.395 20.762C101.685 21.446 101.128 22.3833 100.723 23.574C100.343 24.7647 100.14 26.1707 100.115 27.792V36H95.3267ZM125.219 36.494C123.623 36.494 122.217 36.0887 121.001 35.278C119.785 34.442 118.835 33.2387 118.151 31.668C117.492 30.0973 117.163 28.21 117.163 26.006C117.163 23.9287 117.467 22.1173 118.075 20.572C118.708 19.0013 119.607 17.798 120.773 16.962C121.938 16.1007 123.357 15.67 125.029 15.67C126.346 15.67 127.448 15.936 128.335 16.468C129.221 16.9747 129.943 17.722 130.501 18.71C131.083 19.698 131.514 20.876 131.793 22.244H132.477C132.325 21.3827 132.185 20.5467 132.059 19.736C131.932 18.9 131.831 18.1147 131.755 17.38C131.679 16.6453 131.641 15.9867 131.641 15.404V9.248H136.467V26.804L136.505 36H132.363L132.439 30.148H131.869C131.565 31.5413 131.121 32.7067 130.539 33.644C129.956 34.5813 129.221 35.2907 128.335 35.772C127.473 36.2533 126.435 36.494 125.219 36.494ZM126.701 32.542C127.511 32.542 128.221 32.352 128.829 31.972C129.462 31.592 129.981 31.098 130.387 30.49C130.817 29.882 131.134 29.2233 131.337 28.514C131.565 27.7793 131.679 27.07 131.679 26.386V25.854C131.679 25.322 131.603 24.7773 131.451 24.22C131.324 23.6373 131.121 23.08 130.843 22.548C130.589 22.016 130.26 21.5347 129.855 21.104C129.449 20.648 128.981 20.2933 128.449 20.04C127.917 19.7867 127.334 19.66 126.701 19.66C125.738 19.66 124.915 19.9387 124.231 20.496C123.572 21.0533 123.053 21.8133 122.673 22.776C122.318 23.7387 122.141 24.866 122.141 26.158C122.141 27.4247 122.318 28.5393 122.673 29.502C123.053 30.4647 123.585 31.212 124.269 31.744C124.953 32.276 125.763 32.542 126.701 32.542Z" fill="white"/>
</svg>
