<svg width="26" height="26" viewBox="0 0 26 26" fill="none" xmlns="http://www.w3.org/2000/svg">
<path fill-rule="evenodd" clip-rule="evenodd" d="M12.9999 2.16675C18.9831 2.16675 23.8332 7.01689 23.8332 13.0001C23.8332 18.9828 18.9831 23.8335 12.9999 23.8335C7.01664 23.8335 2.1665 18.9828 2.1665 13.0001C2.1665 7.01689 7.01664 2.16675 12.9999 2.16675Z" fill="#2775CA"/>
<path fill-rule="evenodd" clip-rule="evenodd" d="M10.9694 20.5322C10.9694 20.787 10.7698 20.9318 10.5234 20.8548C7.24789 19.8099 4.87305 16.7385 4.87305 13.1145C4.87305 9.49066 7.24789 6.41916 10.5234 5.37423C10.7698 5.29778 10.9694 5.44206 10.9694 5.69689V6.32597C10.9694 6.49561 10.8379 6.69528 10.6763 6.75056C8.08477 7.70217 6.22832 10.1917 6.22832 13.1102C6.22832 16.0287 8.08477 18.5188 10.6763 19.4699C10.8379 19.5295 10.9694 19.7247 10.9694 19.895V20.5322Z" fill="white"/>
<path fill-rule="evenodd" clip-rule="evenodd" d="M13.6754 18.1913C13.6754 18.3784 13.5225 18.5313 13.3356 18.5313H12.66C12.4731 18.5313 12.3202 18.3784 12.3202 18.1913V17.1209C10.8417 16.9213 10.1197 16.0927 9.92421 14.967C9.89011 14.7756 10.043 14.6015 10.2385 14.6015H11.0117C11.1731 14.6015 11.3092 14.7164 11.3431 14.8775C11.4877 15.5488 11.8742 16.0629 13.0594 16.0629C13.9345 16.0629 14.555 15.5743 14.555 14.8439C14.555 14.1129 14.1895 13.8369 12.9065 13.6243C11.0117 13.3695 10.1154 12.7958 10.1154 11.3089C10.1154 10.1619 10.9822 9.26989 12.3245 9.07859V8.02923C12.3245 7.84223 12.4776 7.68921 12.6643 7.68921H13.3399C13.5268 7.68921 13.6797 7.84223 13.6797 8.02923V9.10838C14.7715 9.30412 15.464 9.92396 15.6893 10.952C15.7316 11.1478 15.5787 11.3301 15.3792 11.3301H14.6653C14.5124 11.3301 14.385 11.228 14.3383 11.0794C14.1471 10.4255 13.6797 10.1452 12.8682 10.1452C11.9718 10.1452 11.5087 10.5784 11.5087 11.1858C11.5087 11.8273 11.7723 12.15 13.1489 12.35C15.0094 12.6048 15.9697 13.1358 15.9697 14.7208C15.9697 15.9229 15.0774 16.8958 13.6797 17.1209V18.1913H13.6754Z" fill="white"/>
<path fill-rule="evenodd" clip-rule="evenodd" d="M15.4768 20.8549C15.2306 20.9319 15.0308 20.7871 15.0308 20.5322V19.9037C15.0308 19.7167 15.1455 19.5426 15.3239 19.4786C17.9154 18.527 19.7718 16.0374 19.7718 13.1189C19.7718 10.2004 17.9154 7.71085 15.3239 6.75924C15.1625 6.69966 15.0308 6.50441 15.0308 6.33416V5.70558C15.0308 5.45075 15.2306 5.30216 15.4768 5.38242C18.7523 6.42796 21.1271 9.49934 21.1271 13.1232C21.123 16.7385 18.7523 19.8057 15.4768 20.8549Z" fill="white"/>
</svg>
